<?xml version="1.0" encoding="UTF-8" standalone="no"?>
<!DOCTYPE svg PUBLIC "-//W3C//DTD SVG 1.0//EN" "http://www.w3.org/TR/2001/PR-SVG-20010719/DTD/svg10.dtd">
<svg width="89cm" height="73cm" viewBox="-5961 -7850 1763 1452" xmlns="http://www.w3.org/2000/svg" xmlns:xlink="http://www.w3.org/1999/xlink">
  <g>
    <rect style="fill: #ffffff" x="-5960" y="-7849" width="1760" height="1449"/>
    <rect style="fill: none; fill-opacity:0; stroke-width: 2; stroke: #000000" x="-5960" y="-7849" width="1760" height="1449"/>
    <text font-size="12.7998" style="fill: #000000;text-anchor:middle;font-family:sans-serif;font-style:normal;font-weight:normal" x="-5080" y="-7120.6">
      <tspan x="-5080" y="-7120.6"></tspan>
    </text>
  </g>
  <g>
    <rect style="fill: #ffffff" x="-5040" y="-7429.87" width="200" height="740"/>
    <rect style="fill: none; fill-opacity:0; stroke-width: 2; stroke: #000000" x="-5040" y="-7429.87" width="200" height="740"/>
    <text font-size="12.7998" style="fill: #000000;text-anchor:middle;font-family:sans-serif;font-style:normal;font-weight:normal" x="-4940" y="-7055.97">
      <tspan x="-4940" y="-7055.97"></tspan>
    </text>
  </g>
  <g>
    <rect style="fill: #ffffff" x="-5000" y="-7107.87" width="83.6" height="54"/>
    <rect style="fill: none; fill-opacity:0; stroke-width: 2; stroke: #000000" x="-5000" y="-7107.87" width="83.6" height="54"/>
    <text font-size="12.7998" style="fill: #000000;text-anchor:middle;font-family:sans-serif;font-style:normal;font-weight:normal" x="-4958.2" y="-7076.97">
      <tspan x="-4958.2" y="-7076.97">login</tspan>
    </text>
  </g>
  <g>
    <rect style="fill: #ffffff" x="-5573" y="-7209.87" width="104.5" height="54"/>
    <rect style="fill: none; fill-opacity:0; stroke-width: 2; stroke: #000000" x="-5573" y="-7209.87" width="104.5" height="54"/>
    <text font-size="12.7998" style="fill: #000000;text-anchor:middle;font-family:sans-serif;font-style:normal;font-weight:normal" x="-5520.75" y="-7186.97">
      <tspan x="-5520.75" y="-7186.97">Login</tspan>
      <tspan x="-5520.75" y="-7170.97">Activity</tspan>
    </text>
  </g>
  <g>
    <rect style="fill: #ffffff" x="-5573" y="-6849.87" width="104.5" height="54"/>
    <rect style="fill: none; fill-opacity:0; stroke-width: 2; stroke: #000000" x="-5573" y="-6849.87" width="104.5" height="54"/>
    <text font-size="12.7998" style="fill: #000000;text-anchor:middle;font-family:sans-serif;font-style:normal;font-weight:normal" x="-5520.75" y="-6826.97">
      <tspan x="-5520.75" y="-6826.97">Feedback</tspan>
      <tspan x="-5520.75" y="-6810.97">Activity</tspan>
    </text>
  </g>
  <g>
    <rect style="fill: #ffffff" x="-4633" y="-7109.87" width="360" height="369"/>
    <rect style="fill: none; fill-opacity:0; stroke-width: 2; stroke: #000000" x="-4633" y="-7109.87" width="360" height="369"/>
    <text font-size="12.7998" style="fill: #000000;text-anchor:middle;font-family:sans-serif;font-style:normal;font-weight:normal" x="-4453" y="-6921.47">
      <tspan x="-4453" y="-6921.47"></tspan>
    </text>
  </g>
  <g>
    <rect style="fill: #ffffff" x="-4433" y="-7089.87" width="104.5" height="54"/>
    <rect style="fill: none; fill-opacity:0; stroke-width: 2; stroke: #000000" x="-4433" y="-7089.87" width="104.5" height="54"/>
    <text font-size="12.7998" style="fill: #000000;text-anchor:middle;font-family:sans-serif;font-style:normal;font-weight:normal" x="-4380.75" y="-7066.97">
      <tspan x="-4380.75" y="-7066.97">Login</tspan>
      <tspan x="-4380.75" y="-7050.97">Service</tspan>
    </text>
  </g>
  <g>
    <rect style="fill: #ffffff" x="-4433" y="-6989.87" width="104.5" height="54"/>
    <rect style="fill: none; fill-opacity:0; stroke-width: 2; stroke: #000000" x="-4433" y="-6989.87" width="104.5" height="54"/>
    <text font-size="12.7998" style="fill: #000000;text-anchor:middle;font-family:sans-serif;font-style:normal;font-weight:normal" x="-4380.75" y="-6966.97">
      <tspan x="-4380.75" y="-6966.97">Checkin</tspan>
      <tspan x="-4380.75" y="-6950.97">Service</tspan>
    </text>
  </g>
  <g>
    <rect style="fill: #ffffff" x="-4433" y="-6889.87" width="104.5" height="54"/>
    <rect style="fill: none; fill-opacity:0; stroke-width: 2; stroke: #000000" x="-4433" y="-6889.87" width="104.5" height="54"/>
    <text font-size="12.7998" style="fill: #000000;text-anchor:middle;font-family:sans-serif;font-style:normal;font-weight:normal" x="-4380.75" y="-6866.97">
      <tspan x="-4380.75" y="-6866.97">Feedback</tspan>
      <tspan x="-4380.75" y="-6850.97">Service</tspan>
    </text>
  </g>
  <g>
    <rect style="fill: #ffffff" x="-5588.59" y="-7108.87" width="134" height="54"/>
    <rect style="fill: none; fill-opacity:0; stroke-width: 2; stroke: #000000" x="-5588.59" y="-7108.87" width="134" height="54"/>
    <text font-size="12.7998" style="fill: #000000;text-anchor:middle;font-family:sans-serif;font-style:normal;font-weight:normal" x="-5521.59" y="-7085.97">
      <tspan x="-5521.59" y="-7085.97">Login</tspan>
      <tspan x="-5521.59" y="-7069.97">ContentFragment</tspan>
    </text>
  </g>
  <g>
    <rect style="fill: #ffffff" x="-5589" y="-6749.87" width="134" height="54"/>
    <rect style="fill: none; fill-opacity:0; stroke-width: 2; stroke: #000000" x="-5589" y="-6749.87" width="134" height="54"/>
    <text font-size="12.7998" style="fill: #000000;text-anchor:middle;font-family:sans-serif;font-style:normal;font-weight:normal" x="-5522" y="-6726.97">
      <tspan x="-5522" y="-6726.97">Feedback</tspan>
      <tspan x="-5522" y="-6710.97">ContentFragment</tspan>
    </text>
  </g>
  <g>
    <rect style="fill: #ffffff" x="-5933" y="-6889.87" width="125.65" height="54"/>
    <rect style="fill: none; fill-opacity:0; stroke-width: 2; stroke: #000000" x="-5933" y="-6889.87" width="125.65" height="54"/>
    <text font-size="12.7998" style="fill: #000000;text-anchor:middle;font-family:sans-serif;font-style:normal;font-weight:normal" x="-5870.18" y="-6866.97">
      <tspan x="-5870.18" y="-6866.97">Application</tspan>
      <tspan x="-5870.18" y="-6850.97">ContentProvider</tspan>
    </text>
  </g>
  <g>
    <path style="fill: #ffffff" d="M -5908.41 -6744.87 C -5893.08,-6758.37 -5885.42,-6762.87 -5870.09,-6762.87 C -5854.76,-6762.87 -5847.09,-6758.37 -5831.76,-6744.87 L -5831.76,-6672.87 C -5847.09,-6659.37 -5854.76,-6654.87 -5870.09,-6654.87 C -5885.42,-6654.87 -5893.08,-6659.37 -5908.41,-6672.87 L -5908.41,-6744.87z"/>
    <path style="fill: none; fill-opacity:0; stroke-width: 2; stroke: #000000" d="M -5908.41 -6744.87 C -5893.08,-6758.37 -5885.42,-6762.87 -5870.09,-6762.87 C -5854.76,-6762.87 -5847.09,-6758.37 -5831.76,-6744.87 L -5831.76,-6672.87 C -5847.09,-6659.37 -5854.76,-6654.87 -5870.09,-6654.87 C -5885.42,-6654.87 -5893.08,-6659.37 -5908.41,-6672.87 L -5908.41,-6744.87"/>
    <path style="fill: none; fill-opacity:0; stroke-width: 2; stroke: #000000" d="M -5908.41 -6744.87 C -5893.08,-6731.37 -5885.42,-6726.87 -5870.09,-6726.87 C -5854.76,-6726.87 -5847.09,-6731.37 -5831.76,-6744.87"/>
    <text font-size="12.7998" style="fill: #000000;text-anchor:middle;font-family:sans-serif;font-style:normal;font-weight:normal" x="-5870.09" y="-6711.87">
      <tspan x="-5870.09" y="-6711.87">client</tspan>
      <tspan x="-5870.09" y="-6695.87">application</tspan>
      <tspan x="-5870.09" y="-6679.87">database</tspan>
    </text>
  </g>
  <g>
    <line style="fill: none; fill-opacity:0; stroke-width: 2; stroke: #000000" x1="-5870.16" y1="-6826.13" x2="-5870.1" y2="-6772.6"/>
    <polygon style="fill: #000000" points="-5870.17,-6833.63 -5865.16,-6823.64 -5870.16,-6826.13 -5875.16,-6823.63 "/>
    <polygon style="fill: none; fill-opacity:0; stroke-width: 2; stroke: #000000" points="-5870.17,-6833.63 -5865.16,-6823.64 -5870.16,-6826.13 -5875.16,-6823.63 "/>
    <polygon style="fill: #000000" points="-5870.09,-6765.1 -5875.1,-6775.1 -5870.1,-6772.6 -5865.1,-6775.11 "/>
    <polygon style="fill: none; fill-opacity:0; stroke-width: 2; stroke: #000000" points="-5870.09,-6765.1 -5875.1,-6775.1 -5870.1,-6772.6 -5865.1,-6775.11 "/>
  </g>
  <g>
    <rect style="fill: #ffffff" x="-4613" y="-7009.87" width="104.5" height="54"/>
    <rect style="fill: none; fill-opacity:0; stroke-width: 2; stroke: #000000" x="-4613" y="-7009.87" width="104.5" height="54"/>
    <text font-size="12.7998" style="fill: #000000;text-anchor:middle;font-family:sans-serif;font-style:normal;font-weight:normal" x="-4560.75" y="-6986.97">
      <tspan x="-4560.75" y="-6986.97">Dispatcher</tspan>
      <tspan x="-4560.75" y="-6970.97">Servelet</tspan>
    </text>
  </g>
  <g>
    <rect style="fill: #ffffff" x="-4433" y="-6809.87" width="128.35" height="54"/>
    <rect style="fill: none; fill-opacity:0; stroke-width: 2; stroke: #000000" x="-4433" y="-6809.87" width="128.35" height="54"/>
    <text font-size="12.7998" style="fill: #000000;text-anchor:middle;font-family:sans-serif;font-style:normal;font-weight:normal" x="-4368.83" y="-6786.97">
      <tspan x="-4368.83" y="-6786.97">UserRegistration</tspan>
      <tspan x="-4368.83" y="-6770.97">Service</tspan>
    </text>
  </g>
  <text font-size="12.7998" style="fill: #000000;text-anchor:start;font-family:sans-serif;font-style:normal;font-weight:normal" x="-4940" y="-7059.87">
    <tspan x="-4940" y="-7059.87"></tspan>
  </text>
  <text font-size="12.7998" style="fill: #000000;text-anchor:middle;font-family:sans-serif;font-style:normal;font-weight:normal" x="-4940" y="-7403.87">
    <tspan x="-4940" y="-7403.87">Diabetes</tspan>
    <tspan x="-4940" y="-7387.87">Services </tspan>
    <tspan x="-4940" y="-7371.87"></tspan>
  </text>
  <g>
    <rect style="fill: #ffffff" x="-5000" y="-7027.87" width="83.6" height="54"/>
    <rect style="fill: none; fill-opacity:0; stroke-width: 2; stroke: #000000" x="-5000" y="-7027.87" width="83.6" height="54"/>
    <text font-size="12.7998" style="fill: #000000;text-anchor:middle;font-family:sans-serif;font-style:normal;font-weight:normal" x="-4958.2" y="-6996.97">
      <tspan x="-4958.2" y="-6996.97">register</tspan>
    </text>
  </g>
  <g>
    <rect style="fill: #ffffff" x="-5000" y="-6947.87" width="83.6" height="54"/>
    <rect style="fill: none; fill-opacity:0; stroke-width: 2; stroke: #000000" x="-5000" y="-6947.87" width="83.6" height="54"/>
    <text font-size="12.7998" style="fill: #000000;text-anchor:middle;font-family:sans-serif;font-style:normal;font-weight:normal" x="-4958.2" y="-6916.97">
      <tspan x="-4958.2" y="-6916.97">feedback</tspan>
    </text>
  </g>
  <g>
    <rect style="fill: #ffffff" x="-5000" y="-6867.87" width="83.6" height="54"/>
    <rect style="fill: none; fill-opacity:0; stroke-width: 2; stroke: #000000" x="-5000" y="-6867.87" width="83.6" height="54"/>
    <text font-size="12.7998" style="fill: #000000;text-anchor:middle;font-family:sans-serif;font-style:normal;font-weight:normal" x="-4958.2" y="-6836.97">
      <tspan x="-4958.2" y="-6836.97">checkin</tspan>
    </text>
  </g>
  <g>
    <line style="fill: none; fill-opacity:0; stroke-width: 2; stroke: #000000" x1="-5520.75" y1="-7155.87" x2="-5521.16" y2="-7119.59"/>
    <polygon style="fill: #000000" points="-5521.24,-7112.09 -5526.13,-7122.14 -5521.16,-7119.59 -5516.13,-7122.03 "/>
    <polygon style="fill: none; fill-opacity:0; stroke-width: 2; stroke: #000000" points="-5521.24,-7112.09 -5526.13,-7122.14 -5521.16,-7119.59 -5516.13,-7122.03 "/>
  </g>
  <g>
    <rect style="fill: #ffffff" x="-5573" y="-7026.87" width="104.5" height="54"/>
    <rect style="fill: none; fill-opacity:0; stroke-width: 2; stroke: #000000" x="-5573" y="-7026.87" width="104.5" height="54"/>
    <text font-size="12.7998" style="fill: #000000;text-anchor:middle;font-family:sans-serif;font-style:normal;font-weight:normal" x="-5520.75" y="-7003.97">
      <tspan x="-5520.75" y="-7003.97">Registration</tspan>
      <tspan x="-5520.75" y="-6987.97">Activity</tspan>
    </text>
  </g>
  <g>
    <rect style="fill: #ffffff" x="-5590" y="-6937.87" width="134" height="54"/>
    <rect style="fill: none; fill-opacity:0; stroke-width: 2; stroke: #000000" x="-5590" y="-6937.87" width="134" height="54"/>
    <text font-size="12.7998" style="fill: #000000;text-anchor:middle;font-family:sans-serif;font-style:normal;font-weight:normal" x="-5523" y="-6914.97">
      <tspan x="-5523" y="-6914.97">Registration</tspan>
      <tspan x="-5523" y="-6898.97">ContentFragment</tspan>
    </text>
  </g>
  <g>
    <line style="fill: none; fill-opacity:0; stroke-width: 2; stroke: #000000" x1="-5520.75" y1="-6972.87" x2="-5521.63" y2="-6948.59"/>
    <polygon style="fill: #000000" points="-5521.9,-6941.09 -5526.54,-6951.27 -5521.63,-6948.59 -5516.54,-6950.9 "/>
    <polygon style="fill: none; fill-opacity:0; stroke-width: 2; stroke: #000000" points="-5521.9,-6941.09 -5526.54,-6951.27 -5521.63,-6948.59 -5516.54,-6950.9 "/>
  </g>
  <g>
    <rect style="fill: #ffffff" x="-5873" y="-7749.87" width="141.35" height="70"/>
    <rect style="fill: none; fill-opacity:0; stroke-width: 2; stroke: #000000" x="-5873" y="-7749.87" width="141.35" height="70"/>
    <text font-size="12.7998" style="fill: #000000;text-anchor:middle;font-family:sans-serif;font-style:normal;font-weight:normal" x="-5802.33" y="-7726.97">
      <tspan x="-5802.33" y="-7726.97">CheckinReminder</tspan>
      <tspan x="-5802.33" y="-7710.97">Notification</tspan>
      <tspan x="-5802.33" y="-7694.97"></tspan>
    </text>
  </g>
  <g>
    <line style="fill: none; fill-opacity:0; stroke-width: 2; stroke: #000000" x1="-5520.75" y1="-6795.87" x2="-5521.74" y2="-6759.6"/>
    <polygon style="fill: #000000" points="-5521.94,-6752.1 -5526.67,-6762.24 -5521.74,-6759.6 -5516.67,-6761.96 "/>
    <polygon style="fill: none; fill-opacity:0; stroke-width: 2; stroke: #000000" points="-5521.94,-6752.1 -5526.67,-6762.24 -5521.74,-6759.6 -5516.67,-6761.96 "/>
  </g>
  <g>
    <rect style="fill: #ffffff" x="-5573" y="-6649.87" width="104.5" height="54"/>
    <rect style="fill: none; fill-opacity:0; stroke-width: 2; stroke: #000000" x="-5573" y="-6649.87" width="104.5" height="54"/>
    <text font-size="12.7998" style="fill: #000000;text-anchor:middle;font-family:sans-serif;font-style:normal;font-weight:normal" x="-5520.75" y="-6626.97">
      <tspan x="-5520.75" y="-6626.97">Feedback</tspan>
      <tspan x="-5520.75" y="-6610.97">Activity</tspan>
    </text>
  </g>
  <g>
    <rect style="fill: #ffffff" x="-5588" y="-6549.87" width="134" height="54"/>
    <rect style="fill: none; fill-opacity:0; stroke-width: 2; stroke: #000000" x="-5588" y="-6549.87" width="134" height="54"/>
    <text font-size="12.7998" style="fill: #000000;text-anchor:middle;font-family:sans-serif;font-style:normal;font-weight:normal" x="-5521" y="-6526.97">
      <tspan x="-5521" y="-6526.97">Feedback</tspan>
      <tspan x="-5521" y="-6510.97">ContentFragment</tspan>
    </text>
  </g>
  <g>
    <line style="fill: none; fill-opacity:0; stroke-width: 2; stroke: #000000" x1="-5520.75" y1="-6595.87" x2="-5520.95" y2="-6559.6"/>
    <polygon style="fill: #000000" points="-5520.99,-6552.1 -5525.93,-6562.13 -5520.95,-6559.6 -5515.93,-6562.08 "/>
    <polygon style="fill: none; fill-opacity:0; stroke-width: 2; stroke: #000000" points="-5520.99,-6552.1 -5525.93,-6562.13 -5520.95,-6559.6 -5515.93,-6562.08 "/>
  </g>
  <g>
    <polyline style="fill: none; fill-opacity:0; stroke-width: 2; stroke: #000000" points="-5797.61,-6876.37 -5697.97,-6876.37 -5697.97,-7081.87 -5598.32,-7081.87 "/>
    <polygon style="fill: #000000" points="-5805.11,-6876.37 -5795.11,-6881.37 -5797.61,-6876.37 -5795.11,-6871.37 "/>
    <polygon style="fill: none; fill-opacity:0; stroke-width: 2; stroke: #000000" points="-5805.11,-6876.37 -5795.11,-6881.37 -5797.61,-6876.37 -5795.11,-6871.37 "/>
    <polygon style="fill: #000000" points="-5590.82,-7081.87 -5600.82,-7076.87 -5598.32,-7081.87 -5600.82,-7086.87 "/>
    <polygon style="fill: none; fill-opacity:0; stroke-width: 2; stroke: #000000" points="-5590.82,-7081.87 -5600.82,-7076.87 -5598.32,-7081.87 -5600.82,-7086.87 "/>
  </g>
  <g>
    <polyline style="fill: none; fill-opacity:0; stroke-width: 2; stroke: #000000" points="-5797.61,-6862.87 -5673,-6862.87 -5673,-6910.87 -5599.74,-6910.87 "/>
    <polygon style="fill: #000000" points="-5805.11,-6862.87 -5795.11,-6867.87 -5797.61,-6862.87 -5795.11,-6857.87 "/>
    <polygon style="fill: none; fill-opacity:0; stroke-width: 2; stroke: #000000" points="-5805.11,-6862.87 -5795.11,-6867.87 -5797.61,-6862.87 -5795.11,-6857.87 "/>
    <polygon style="fill: #000000" points="-5592.24,-6910.87 -5602.24,-6905.87 -5599.74,-6910.87 -5602.24,-6915.87 "/>
    <polygon style="fill: none; fill-opacity:0; stroke-width: 2; stroke: #000000" points="-5592.24,-6910.87 -5602.24,-6905.87 -5599.74,-6910.87 -5602.24,-6915.87 "/>
  </g>
  <g>
    <polyline style="fill: none; fill-opacity:0; stroke-width: 2; stroke: #000000" points="-5797.61,-6849.37 -5698.18,-6849.37 -5698.18,-6736.37 -5598.74,-6736.37 "/>
    <polygon style="fill: #000000" points="-5805.11,-6849.37 -5795.11,-6854.37 -5797.61,-6849.37 -5795.11,-6844.37 "/>
    <polygon style="fill: none; fill-opacity:0; stroke-width: 2; stroke: #000000" points="-5805.11,-6849.37 -5795.11,-6854.37 -5797.61,-6849.37 -5795.11,-6844.37 "/>
    <polygon style="fill: #000000" points="-5591.24,-6736.37 -5601.24,-6731.37 -5598.74,-6736.37 -5601.24,-6741.37 "/>
    <polygon style="fill: none; fill-opacity:0; stroke-width: 2; stroke: #000000" points="-5591.24,-6736.37 -5601.24,-6731.37 -5598.74,-6736.37 -5601.24,-6741.37 "/>
  </g>
  <g>
    <polyline style="fill: none; fill-opacity:0; stroke-width: 2; stroke: #000000" points="-5797.61,-6849.37 -5733,-6849.37 -5733,-6522.87 -5597.74,-6522.87 "/>
    <polygon style="fill: #000000" points="-5805.11,-6849.37 -5795.11,-6854.37 -5797.61,-6849.37 -5795.11,-6844.37 "/>
    <polygon style="fill: none; fill-opacity:0; stroke-width: 2; stroke: #000000" points="-5805.11,-6849.37 -5795.11,-6854.37 -5797.61,-6849.37 -5795.11,-6844.37 "/>
    <polygon style="fill: #000000" points="-5590.24,-6522.87 -5600.24,-6517.87 -5597.74,-6522.87 -5600.24,-6527.87 "/>
    <polygon style="fill: none; fill-opacity:0; stroke-width: 2; stroke: #000000" points="-5590.24,-6522.87 -5600.24,-6517.87 -5597.74,-6522.87 -5600.24,-6527.87 "/>
  </g>
  <g>
    <polyline style="fill: none; fill-opacity:0; stroke-width: 2; stroke: #000000" points="-4906.66,-7080.87 -4764.7,-7080.87 -4764.7,-6982.87 -4622.74,-6982.87 "/>
    <polygon style="fill: #000000" points="-4914.16,-7080.87 -4904.16,-7085.87 -4906.66,-7080.87 -4904.16,-7075.87 "/>
    <polygon style="fill: none; fill-opacity:0; stroke-width: 2; stroke: #000000" points="-4914.16,-7080.87 -4904.16,-7085.87 -4906.66,-7080.87 -4904.16,-7075.87 "/>
    <polygon style="fill: #000000" points="-4615.24,-6982.87 -4625.24,-6977.87 -4622.74,-6982.87 -4625.24,-6987.87 "/>
    <polygon style="fill: none; fill-opacity:0; stroke-width: 2; stroke: #000000" points="-4615.24,-6982.87 -4625.24,-6977.87 -4622.74,-6982.87 -4625.24,-6987.87 "/>
  </g>
  <g>
    <polyline style="fill: none; fill-opacity:0; stroke-width: 2; stroke: #000000" points="-4906.66,-7000.87 -4764.7,-7000.87 -4764.7,-6982.87 -4622.74,-6982.87 "/>
    <polygon style="fill: #000000" points="-4914.16,-7000.87 -4904.16,-7005.87 -4906.66,-7000.87 -4904.16,-6995.87 "/>
    <polygon style="fill: none; fill-opacity:0; stroke-width: 2; stroke: #000000" points="-4914.16,-7000.87 -4904.16,-7005.87 -4906.66,-7000.87 -4904.16,-6995.87 "/>
    <polygon style="fill: #000000" points="-4615.24,-6982.87 -4625.24,-6977.87 -4622.74,-6982.87 -4625.24,-6987.87 "/>
    <polygon style="fill: none; fill-opacity:0; stroke-width: 2; stroke: #000000" points="-4615.24,-6982.87 -4625.24,-6977.87 -4622.74,-6982.87 -4625.24,-6987.87 "/>
  </g>
  <g>
    <polyline style="fill: none; fill-opacity:0; stroke-width: 2; stroke: #000000" points="-4906.66,-6920.87 -4764.7,-6920.87 -4764.7,-6982.87 -4622.74,-6982.87 "/>
    <polygon style="fill: #000000" points="-4914.16,-6920.87 -4904.16,-6925.87 -4906.66,-6920.87 -4904.16,-6915.87 "/>
    <polygon style="fill: none; fill-opacity:0; stroke-width: 2; stroke: #000000" points="-4914.16,-6920.87 -4904.16,-6925.87 -4906.66,-6920.87 -4904.16,-6915.87 "/>
    <polygon style="fill: #000000" points="-4615.24,-6982.87 -4625.24,-6977.87 -4622.74,-6982.87 -4625.24,-6987.87 "/>
    <polygon style="fill: none; fill-opacity:0; stroke-width: 2; stroke: #000000" points="-4615.24,-6982.87 -4625.24,-6977.87 -4622.74,-6982.87 -4625.24,-6987.87 "/>
  </g>
  <g>
    <polyline style="fill: none; fill-opacity:0; stroke-width: 2; stroke: #000000" points="-4613,-6982.87 -4764.7,-6982.87 -4764.7,-6840.87 -4906.66,-6840.87 "/>
    <polygon style="fill: #000000" points="-4914.16,-6840.87 -4904.16,-6845.87 -4906.66,-6840.87 -4904.16,-6835.87 "/>
    <polygon style="fill: none; fill-opacity:0; stroke-width: 2; stroke: #000000" points="-4914.16,-6840.87 -4904.16,-6845.87 -4906.66,-6840.87 -4904.16,-6835.87 "/>
  </g>
  <g>
    <polyline style="fill: none; fill-opacity:0; stroke-width: 2; stroke: #000000" points="-4508.5,-6982.87 -4470.75,-6982.87 -4470.75,-7062.87 -4442.74,-7062.87 "/>
    <polygon style="fill: #000000" points="-4435.24,-7062.87 -4445.24,-7057.87 -4442.74,-7062.87 -4445.24,-7067.87 "/>
    <polygon style="fill: none; fill-opacity:0; stroke-width: 2; stroke: #000000" points="-4435.24,-7062.87 -4445.24,-7057.87 -4442.74,-7062.87 -4445.24,-7067.87 "/>
  </g>
  <g>
    <polyline style="fill: none; fill-opacity:0; stroke-width: 2; stroke: #000000" points="-4508.5,-6982.87 -4470.75,-6982.87 -4470.75,-6962.87 -4442.74,-6962.87 "/>
    <polygon style="fill: #000000" points="-4435.24,-6962.87 -4445.24,-6957.87 -4442.74,-6962.87 -4445.24,-6967.87 "/>
    <polygon style="fill: none; fill-opacity:0; stroke-width: 2; stroke: #000000" points="-4435.24,-6962.87 -4445.24,-6957.87 -4442.74,-6962.87 -4445.24,-6967.87 "/>
  </g>
  <g>
    <polyline style="fill: none; fill-opacity:0; stroke-width: 2; stroke: #000000" points="-4508.5,-6982.87 -4470.75,-6982.87 -4470.75,-6862.87 -4442.74,-6862.87 "/>
    <polygon style="fill: #000000" points="-4435.24,-6862.87 -4445.24,-6857.87 -4442.74,-6862.87 -4445.24,-6867.87 "/>
    <polygon style="fill: none; fill-opacity:0; stroke-width: 2; stroke: #000000" points="-4435.24,-6862.87 -4445.24,-6857.87 -4442.74,-6862.87 -4445.24,-6867.87 "/>
  </g>
  <g>
    <polyline style="fill: none; fill-opacity:0; stroke-width: 2; stroke: #000000" points="-4498.76,-6982.87 -4470.75,-6982.87 -4470.75,-6782.87 -4442.74,-6782.87 "/>
    <polygon style="fill: #000000" points="-4506.26,-6982.87 -4496.26,-6987.87 -4498.76,-6982.87 -4496.26,-6977.87 "/>
    <polygon style="fill: none; fill-opacity:0; stroke-width: 2; stroke: #000000" points="-4506.26,-6982.87 -4496.26,-6987.87 -4498.76,-6982.87 -4496.26,-6977.87 "/>
    <polygon style="fill: #000000" points="-4435.24,-6782.87 -4445.24,-6777.87 -4442.74,-6782.87 -4445.24,-6787.87 "/>
    <polygon style="fill: none; fill-opacity:0; stroke-width: 2; stroke: #000000" points="-4435.24,-6782.87 -4445.24,-6777.87 -4442.74,-6782.87 -4445.24,-6787.87 "/>
  </g>
  <g>
    <rect style="fill: #ffffff" x="-5389" y="-7107.87" width="116" height="54"/>
    <rect style="fill: none; fill-opacity:0; stroke-width: 2; stroke: #000000" x="-5389" y="-7107.87" width="116" height="54"/>
    <text font-size="12.7998" style="fill: #000000;text-anchor:middle;font-family:sans-serif;font-style:normal;font-weight:normal" x="-5331" y="-7084.97">
      <tspan x="-5331" y="-7084.97">Login</tspan>
      <tspan x="-5331" y="-7068.97">IntentService</tspan>
    </text>
  </g>
  <g>
    <rect style="fill: #ffffff" x="-5393" y="-6937.87" width="120" height="54"/>
    <rect style="fill: none; fill-opacity:0; stroke-width: 2; stroke: #000000" x="-5393" y="-6937.87" width="120" height="54"/>
    <text font-size="12.7998" style="fill: #000000;text-anchor:middle;font-family:sans-serif;font-style:normal;font-weight:normal" x="-5333" y="-6914.97">
      <tspan x="-5333" y="-6914.97">Login</tspan>
      <tspan x="-5333" y="-6898.97">IntentService</tspan>
    </text>
  </g>
  <g>
    <line style="fill: none; fill-opacity:0; stroke-width: 2; stroke: #000000" x1="-5454.59" y1="-7081.87" x2="-5398.73" y2="-7081.02"/>
    <polygon style="fill: #000000" points="-5391.24,-7080.9 -5401.31,-7076.06 -5398.73,-7081.02 -5401.16,-7086.05 "/>
    <polygon style="fill: none; fill-opacity:0; stroke-width: 2; stroke: #000000" points="-5391.24,-7080.9 -5401.31,-7076.06 -5398.73,-7081.02 -5401.16,-7086.05 "/>
  </g>
  <g>
    <line style="fill: none; fill-opacity:0; stroke-width: 2; stroke: #000000" x1="-5456" y1="-6910.87" x2="-5402.74" y2="-6910.87"/>
    <polygon style="fill: #000000" points="-5395.24,-6910.87 -5405.24,-6905.87 -5402.74,-6910.87 -5405.24,-6915.87 "/>
    <polygon style="fill: none; fill-opacity:0; stroke-width: 2; stroke: #000000" points="-5395.24,-6910.87 -5405.24,-6905.87 -5402.74,-6910.87 -5405.24,-6915.87 "/>
  </g>
  <g>
    <rect style="fill: #ffffff" x="-5373" y="-6749.87" width="116" height="54"/>
    <rect style="fill: none; fill-opacity:0; stroke-width: 2; stroke: #000000" x="-5373" y="-6749.87" width="116" height="54"/>
    <text font-size="12.7998" style="fill: #000000;text-anchor:middle;font-family:sans-serif;font-style:normal;font-weight:normal" x="-5315" y="-6726.97">
      <tspan x="-5315" y="-6726.97">Login</tspan>
      <tspan x="-5315" y="-6710.97">IntentService</tspan>
    </text>
  </g>
  <g>
    <rect style="fill: #ffffff" x="-5373" y="-6549.87" width="116" height="54"/>
    <rect style="fill: none; fill-opacity:0; stroke-width: 2; stroke: #000000" x="-5373" y="-6549.87" width="116" height="54"/>
    <text font-size="12.7998" style="fill: #000000;text-anchor:middle;font-family:sans-serif;font-style:normal;font-weight:normal" x="-5315" y="-6526.97">
      <tspan x="-5315" y="-6526.97">Login</tspan>
      <tspan x="-5315" y="-6510.97">IntentService</tspan>
    </text>
  </g>
  <g>
    <line style="fill: none; fill-opacity:0; stroke-width: 2; stroke: #000000" x1="-5455" y1="-6722.87" x2="-5382.74" y2="-6722.87"/>
    <polygon style="fill: #000000" points="-5375.24,-6722.87 -5385.24,-6717.87 -5382.74,-6722.87 -5385.24,-6727.87 "/>
    <polygon style="fill: none; fill-opacity:0; stroke-width: 2; stroke: #000000" points="-5375.24,-6722.87 -5385.24,-6717.87 -5382.74,-6722.87 -5385.24,-6727.87 "/>
  </g>
  <g>
    <line style="fill: none; fill-opacity:0; stroke-width: 2; stroke: #000000" x1="-5454" y1="-6522.87" x2="-5382.74" y2="-6522.87"/>
    <polygon style="fill: #000000" points="-5375.24,-6522.87 -5385.24,-6517.87 -5382.74,-6522.87 -5385.24,-6527.87 "/>
    <polygon style="fill: none; fill-opacity:0; stroke-width: 2; stroke: #000000" points="-5375.24,-6522.87 -5385.24,-6517.87 -5382.74,-6522.87 -5385.24,-6527.87 "/>
  </g>
  <g>
    <polyline style="fill: none; fill-opacity:0; stroke-width: 2; stroke: #000000" points="-5273,-6910.87 -5136.5,-6910.87 -5136.5,-7000.87 -5009.74,-7000.87 "/>
    <polygon style="fill: #000000" points="-5002.24,-7000.87 -5012.24,-6995.87 -5009.74,-7000.87 -5012.24,-7005.87 "/>
    <polygon style="fill: none; fill-opacity:0; stroke-width: 2; stroke: #000000" points="-5002.24,-7000.87 -5012.24,-6995.87 -5009.74,-7000.87 -5012.24,-7005.87 "/>
  </g>
  <g>
    <polyline style="fill: none; fill-opacity:0; stroke-width: 2; stroke: #000000" points="-5257,-6722.87 -5128.5,-6722.87 -5128.5,-6920.87 -5009.74,-6920.87 "/>
    <polygon style="fill: #000000" points="-5002.24,-6920.87 -5012.24,-6915.87 -5009.74,-6920.87 -5012.24,-6925.87 "/>
    <polygon style="fill: none; fill-opacity:0; stroke-width: 2; stroke: #000000" points="-5002.24,-6920.87 -5012.24,-6915.87 -5009.74,-6920.87 -5012.24,-6925.87 "/>
  </g>
  <g>
    <polyline style="fill: none; fill-opacity:0; stroke-width: 2; stroke: #000000" points="-5257,-6522.87 -5073,-6522.87 -5073,-6840.87 -5009.74,-6840.87 "/>
    <polygon style="fill: #000000" points="-5002.24,-6840.87 -5012.24,-6835.87 -5009.74,-6840.87 -5012.24,-6845.87 "/>
    <polygon style="fill: none; fill-opacity:0; stroke-width: 2; stroke: #000000" points="-5002.24,-6840.87 -5012.24,-6835.87 -5009.74,-6840.87 -5012.24,-6845.87 "/>
  </g>
  <g>
    <rect style="fill: #ffffff" x="-5000" y="-6769.87" width="83.6" height="54"/>
    <rect style="fill: none; fill-opacity:0; stroke-width: 2; stroke: #000000" x="-5000" y="-6769.87" width="83.6" height="54"/>
    <text font-size="12.7998" style="fill: #000000;text-anchor:middle;font-family:sans-serif;font-style:normal;font-weight:normal" x="-4958.2" y="-6738.97">
      <tspan x="-4958.2" y="-6738.97">data</tspan>
    </text>
  </g>
  <g>
    <rect style="fill: #ffffff" x="-5577" y="-7469.87" width="104.5" height="70"/>
    <rect style="fill: none; fill-opacity:0; stroke-width: 2; stroke: #000000" x="-5577" y="-7469.87" width="104.5" height="70"/>
    <text font-size="12.7998" style="fill: #000000;text-anchor:middle;font-family:sans-serif;font-style:normal;font-weight:normal" x="-5524.75" y="-7446.97">
      <tspan x="-5524.75" y="-7446.97">Followers</tspan>
      <tspan x="-5524.75" y="-7430.97">Preference</tspan>
      <tspan x="-5524.75" y="-7414.97">Activity</tspan>
    </text>
  </g>
  <g>
    <rect style="fill: #ffffff" x="-5593" y="-7329.87" width="134" height="70"/>
    <rect style="fill: none; fill-opacity:0; stroke-width: 2; stroke: #000000" x="-5593" y="-7329.87" width="134" height="70"/>
    <text font-size="12.7998" style="fill: #000000;text-anchor:middle;font-family:sans-serif;font-style:normal;font-weight:normal" x="-5526" y="-7306.97">
      <tspan x="-5526" y="-7306.97">Followers</tspan>
      <tspan x="-5526" y="-7290.97">Preference</tspan>
      <tspan x="-5526" y="-7274.97">ContentFragment</tspan>
    </text>
  </g>
  <g>
    <line style="fill: none; fill-opacity:0; stroke-width: 2; stroke: #000000" x1="-5524.75" y1="-7399.87" x2="-5525.46" y2="-7340.61"/>
    <polygon style="fill: #000000" points="-5525.54,-7333.11 -5530.43,-7343.17 -5525.46,-7340.61 -5520.43,-7343.05 "/>
    <polygon style="fill: none; fill-opacity:0; stroke-width: 2; stroke: #000000" points="-5525.54,-7333.11 -5530.43,-7343.17 -5525.46,-7340.61 -5520.43,-7343.05 "/>
  </g>
  <g>
    <rect style="fill: #ffffff" x="-5409" y="-7329.87" width="150.6" height="70"/>
    <rect style="fill: none; fill-opacity:0; stroke-width: 2; stroke: #000000" x="-5409" y="-7329.87" width="150.6" height="70"/>
    <text font-size="12.7998" style="fill: #000000;text-anchor:middle;font-family:sans-serif;font-style:normal;font-weight:normal" x="-5333.7" y="-7306.97">
      <tspan x="-5333.7" y="-7306.97">Followers</tspan>
      <tspan x="-5333.7" y="-7290.97">Preference</tspan>
      <tspan x="-5333.7" y="-7274.97">IntentService</tspan>
    </text>
  </g>
  <g>
    <rect style="fill: #ffffff" x="-5002.05" y="-7229.87" width="95.7" height="54"/>
    <rect style="fill: none; fill-opacity:0; stroke-width: 2; stroke: #000000" x="-5002.05" y="-7229.87" width="95.7" height="54"/>
    <text font-size="12.7998" style="fill: #000000;text-anchor:middle;font-family:sans-serif;font-style:normal;font-weight:normal" x="-4954.2" y="-7206.97">
      <tspan x="-4954.2" y="-7206.97">followers</tspan>
      <tspan x="-4954.2" y="-7190.97">Preference</tspan>
    </text>
  </g>
  <g>
    <line style="fill: none; fill-opacity:0; stroke-width: 2; stroke: #000000" x1="-5459" y1="-7294.87" x2="-5418.74" y2="-7294.87"/>
    <polygon style="fill: #000000" points="-5411.24,-7294.87 -5421.24,-7289.87 -5418.74,-7294.87 -5421.24,-7299.87 "/>
    <polygon style="fill: none; fill-opacity:0; stroke-width: 2; stroke: #000000" points="-5411.24,-7294.87 -5421.24,-7289.87 -5418.74,-7294.87 -5421.24,-7299.87 "/>
  </g>
  <g>
    <polyline style="fill: none; fill-opacity:0; stroke-width: 2; stroke: #000000" points="-5258.4,-7294.87 -5130.23,-7294.87 -5130.23,-7202.87 -5011.79,-7202.87 "/>
    <polygon style="fill: #000000" points="-5004.29,-7202.87 -5014.29,-7197.87 -5011.79,-7202.87 -5014.29,-7207.87 "/>
    <polygon style="fill: none; fill-opacity:0; stroke-width: 2; stroke: #000000" points="-5004.29,-7202.87 -5014.29,-7197.87 -5011.79,-7202.87 -5014.29,-7207.87 "/>
  </g>
  <g>
    <polyline style="fill: none; fill-opacity:0; stroke-width: 2; stroke: #000000" points="-4906.35,-7202.87 -4753,-7202.87 -4753,-6982.87 -4622.74,-6982.87 "/>
    <polygon style="fill: #000000" points="-4615.24,-6982.87 -4625.24,-6977.87 -4622.74,-6982.87 -4625.24,-6987.87 "/>
    <polygon style="fill: none; fill-opacity:0; stroke-width: 2; stroke: #000000" points="-4615.24,-6982.87 -4625.24,-6977.87 -4622.74,-6982.87 -4625.24,-6987.87 "/>
  </g>
  <g>
    <rect style="fill: #ffffff" x="-5854.41" y="-7589.87" width="104.5" height="70"/>
    <rect style="fill: none; fill-opacity:0; stroke-width: 2; stroke: #000000" x="-5854.41" y="-7589.87" width="104.5" height="70"/>
    <text font-size="12.7998" style="fill: #000000;text-anchor:middle;font-family:sans-serif;font-style:normal;font-weight:normal" x="-5802.16" y="-7566.97">
      <tspan x="-5802.16" y="-7566.97">Repeating</tspan>
      <tspan x="-5802.16" y="-7550.97">Alarm</tspan>
      <tspan x="-5802.16" y="-7534.97">Service</tspan>
    </text>
  </g>
  <g>
    <rect style="fill: #ffffff" x="-5576.41" y="-7749.87" width="104.5" height="70"/>
    <rect style="fill: none; fill-opacity:0; stroke-width: 2; stroke: #000000" x="-5576.41" y="-7749.87" width="104.5" height="70"/>
    <text font-size="12.7998" style="fill: #000000;text-anchor:middle;font-family:sans-serif;font-style:normal;font-weight:normal" x="-5524.16" y="-7718.97">
      <tspan x="-5524.16" y="-7718.97">Checkin</tspan>
      <tspan x="-5524.16" y="-7702.97">Activity</tspan>
    </text>
  </g>
  <g>
    <rect style="fill: #ffffff" x="-5591" y="-7609.87" width="134" height="70"/>
    <rect style="fill: none; fill-opacity:0; stroke-width: 2; stroke: #000000" x="-5591" y="-7609.87" width="134" height="70"/>
    <text font-size="12.7998" style="fill: #000000;text-anchor:middle;font-family:sans-serif;font-style:normal;font-weight:normal" x="-5524" y="-7578.97">
      <tspan x="-5524" y="-7578.97">Checkin</tspan>
      <tspan x="-5524" y="-7562.97">ContentFragment</tspan>
    </text>
  </g>
  <g>
    <line style="fill: none; fill-opacity:0; stroke-width: 2; stroke: #000000" x1="-5524.16" y1="-7679.87" x2="-5524.07" y2="-7620.61"/>
    <polygon style="fill: #000000" points="-5524.06,-7613.11 -5529.08,-7623.1 -5524.07,-7620.61 -5519.08,-7623.12 "/>
    <polygon style="fill: none; fill-opacity:0; stroke-width: 2; stroke: #000000" points="-5524.06,-7613.11 -5529.08,-7623.1 -5524.07,-7620.61 -5519.08,-7623.12 "/>
  </g>
  <g>
    <rect style="fill: #ffffff" x="-5407" y="-7609.87" width="150.6" height="70"/>
    <rect style="fill: none; fill-opacity:0; stroke-width: 2; stroke: #000000" x="-5407" y="-7609.87" width="150.6" height="70"/>
    <text font-size="12.7998" style="fill: #000000;text-anchor:middle;font-family:sans-serif;font-style:normal;font-weight:normal" x="-5331.7" y="-7578.97">
      <tspan x="-5331.7" y="-7578.97">Checkin</tspan>
      <tspan x="-5331.7" y="-7562.97">IntentService</tspan>
    </text>
  </g>
  <g>
    <line style="fill: none; fill-opacity:0; stroke-width: 2; stroke: #000000" x1="-5457" y1="-7574.87" x2="-5416.74" y2="-7574.87"/>
    <polygon style="fill: #000000" points="-5409.24,-7574.87 -5419.24,-7569.87 -5416.74,-7574.87 -5419.24,-7579.87 "/>
    <polygon style="fill: none; fill-opacity:0; stroke-width: 2; stroke: #000000" points="-5409.24,-7574.87 -5419.24,-7569.87 -5416.74,-7574.87 -5419.24,-7579.87 "/>
  </g>
  <g>
    <polyline style="fill: none; fill-opacity:0; stroke-width: 2; stroke: #000000" points="-5256.4,-7574.87 -5126.7,-7574.87 -5126.7,-7322.87 -5006.74,-7322.87 "/>
    <polygon style="fill: #000000" points="-4999.24,-7322.87 -5009.24,-7317.87 -5006.74,-7322.87 -5009.24,-7327.87 "/>
    <polygon style="fill: none; fill-opacity:0; stroke-width: 2; stroke: #000000" points="-4999.24,-7322.87 -5009.24,-7317.87 -5006.74,-7322.87 -5009.24,-7327.87 "/>
  </g>
  <g>
    <rect style="fill: #ffffff" x="-4997" y="-7349.87" width="95.7" height="54"/>
    <rect style="fill: none; fill-opacity:0; stroke-width: 2; stroke: #000000" x="-4997" y="-7349.87" width="95.7" height="54"/>
    <text font-size="12.7998" style="fill: #000000;text-anchor:middle;font-family:sans-serif;font-style:normal;font-weight:normal" x="-4949.15" y="-7326.97">
      <tspan x="-4949.15" y="-7326.97">checkin</tspan>
      <tspan x="-4949.15" y="-7310.97"></tspan>
    </text>
  </g>
  <g>
    <line style="fill: none; fill-opacity:0; stroke-width: 2; stroke: #000000" x1="-5802.16" y1="-7589.87" x2="-5802.31" y2="-7670.13"/>
    <polygon style="fill: #000000" points="-5802.32,-7677.63 -5797.3,-7667.64 -5802.31,-7670.13 -5807.3,-7667.62 "/>
    <polygon style="fill: none; fill-opacity:0; stroke-width: 2; stroke: #000000" points="-5802.32,-7677.63 -5797.3,-7667.64 -5802.31,-7670.13 -5807.3,-7667.62 "/>
  </g>
  <g>
    <line style="fill: none; fill-opacity:0; stroke-width: 2; stroke: #000000" x1="-5731.65" y1="-7714.87" x2="-5586.15" y2="-7714.87"/>
    <polygon style="fill: #000000" points="-5578.65,-7714.87 -5588.65,-7709.87 -5586.15,-7714.87 -5588.65,-7719.87 "/>
    <polygon style="fill: none; fill-opacity:0; stroke-width: 2; stroke: #000000" points="-5578.65,-7714.87 -5588.65,-7709.87 -5586.15,-7714.87 -5588.65,-7719.87 "/>
  </g>
  <g>
    <line style="fill: none; fill-opacity:0; stroke-width: 2; stroke: #000000" x1="-5273" y1="-7080.87" x2="-5009.74" y2="-7080.87"/>
    <polygon style="fill: #000000" points="-5002.24,-7080.87 -5012.24,-7075.87 -5009.74,-7080.87 -5012.24,-7085.87 "/>
    <polygon style="fill: none; fill-opacity:0; stroke-width: 2; stroke: #000000" points="-5002.24,-7080.87 -5012.24,-7075.87 -5009.74,-7080.87 -5012.24,-7085.87 "/>
  </g>
</svg>
