<?xml version="1.0" encoding="UTF-8" standalone="no"?>
<!-- Created by diasvg.py -->
<svg width="88.100cm" height="72.550cm" viewBox="-298.050 -392.500 -209.950 -319.950"
 xmlns="http://www.w3.org/2000/svg"
 xmlns:xlink="http://www.w3.org/1999/xlink">
<rect x="-298.000" y="-392.450" width="88.000" height="72.450" fill="#FFFFFF" stroke="none" stroke-width="0"/>
<rect x="-298.000" y="-392.450" width="88.000" height="72.450" fill="none" stroke="#000000" stroke-width="0.100" />
<rect x="-252.000" y="-371.493" width="10.000" height="37.000" fill="#FFFFFF" stroke="none" stroke-width="0"/>
<rect x="-252.000" y="-371.493" width="10.000" height="37.000" fill="none" stroke="#000000" stroke-width="0.100" />
<rect x="-250.000" y="-355.393" width="4.180" height="2.700" fill="#FFFFFF" stroke="none" stroke-width="0"/>
<rect x="-250.000" y="-355.393" width="4.180" height="2.700" fill="none" stroke="#000000" stroke-width="0.100" />
<text x="-247.910" y="-353.848"  fill="#000000" text-anchor="middle" font-size="0.80" font-family="sans" font-style="normal" font-weight="400">
login</text>
<rect x="-278.650" y="-360.493" width="5.225" height="2.700" fill="#FFFFFF" stroke="none" stroke-width="0"/>
<rect x="-278.650" y="-360.493" width="5.225" height="2.700" fill="none" stroke="#000000" stroke-width="0.100" />
<text x="-276.038" y="-359.348"  fill="#000000" text-anchor="middle" font-size="0.80" font-family="sans" font-style="normal" font-weight="400">
Login</text>
<text x="-276.038" y="-358.548"  fill="#000000" text-anchor="middle" font-size="0.80" font-family="sans" font-style="normal" font-weight="400">
Activity</text>
<rect x="-278.650" y="-342.493" width="5.225" height="2.700" fill="#FFFFFF" stroke="none" stroke-width="0"/>
<rect x="-278.650" y="-342.493" width="5.225" height="2.700" fill="none" stroke="#000000" stroke-width="0.100" />
<text x="-276.038" y="-341.348"  fill="#000000" text-anchor="middle" font-size="0.80" font-family="sans" font-style="normal" font-weight="400">
Feedback</text>
<text x="-276.038" y="-340.548"  fill="#000000" text-anchor="middle" font-size="0.80" font-family="sans" font-style="normal" font-weight="400">
Activity</text>
<rect x="-231.650" y="-355.493" width="18.000" height="18.450" fill="#FFFFFF" stroke="none" stroke-width="0"/>
<rect x="-231.650" y="-355.493" width="18.000" height="18.450" fill="none" stroke="#000000" stroke-width="0.100" />
<rect x="-221.650" y="-354.493" width="5.225" height="2.700" fill="#FFFFFF" stroke="none" stroke-width="0"/>
<rect x="-221.650" y="-354.493" width="5.225" height="2.700" fill="none" stroke="#000000" stroke-width="0.100" />
<text x="-219.038" y="-353.348"  fill="#000000" text-anchor="middle" font-size="0.80" font-family="sans" font-style="normal" font-weight="400">
Login</text>
<text x="-219.038" y="-352.548"  fill="#000000" text-anchor="middle" font-size="0.80" font-family="sans" font-style="normal" font-weight="400">
Service</text>
<rect x="-221.650" y="-349.493" width="5.225" height="2.700" fill="#FFFFFF" stroke="none" stroke-width="0"/>
<rect x="-221.650" y="-349.493" width="5.225" height="2.700" fill="none" stroke="#000000" stroke-width="0.100" />
<text x="-219.038" y="-348.348"  fill="#000000" text-anchor="middle" font-size="0.80" font-family="sans" font-style="normal" font-weight="400">
Checkin</text>
<text x="-219.038" y="-347.548"  fill="#000000" text-anchor="middle" font-size="0.80" font-family="sans" font-style="normal" font-weight="400">
Service</text>
<rect x="-221.650" y="-344.493" width="5.225" height="2.700" fill="#FFFFFF" stroke="none" stroke-width="0"/>
<rect x="-221.650" y="-344.493" width="5.225" height="2.700" fill="none" stroke="#000000" stroke-width="0.100" />
<text x="-219.038" y="-343.348"  fill="#000000" text-anchor="middle" font-size="0.80" font-family="sans" font-style="normal" font-weight="400">
Feedback</text>
<text x="-219.038" y="-342.548"  fill="#000000" text-anchor="middle" font-size="0.80" font-family="sans" font-style="normal" font-weight="400">
Service</text>
<rect x="-279.429" y="-355.443" width="6.700" height="2.700" fill="#FFFFFF" stroke="none" stroke-width="0"/>
<rect x="-279.429" y="-355.443" width="6.700" height="2.700" fill="none" stroke="#000000" stroke-width="0.100" />
<text x="-276.079" y="-354.298"  fill="#000000" text-anchor="middle" font-size="0.80" font-family="sans" font-style="normal" font-weight="400">
Login</text>
<text x="-276.079" y="-353.498"  fill="#000000" text-anchor="middle" font-size="0.80" font-family="sans" font-style="normal" font-weight="400">
ContentFragment</text>
<rect x="-279.450" y="-337.493" width="6.700" height="2.700" fill="#FFFFFF" stroke="none" stroke-width="0"/>
<rect x="-279.450" y="-337.493" width="6.700" height="2.700" fill="none" stroke="#000000" stroke-width="0.100" />
<text x="-276.100" y="-336.348"  fill="#000000" text-anchor="middle" font-size="0.80" font-family="sans" font-style="normal" font-weight="400">
Feedback</text>
<text x="-276.100" y="-335.548"  fill="#000000" text-anchor="middle" font-size="0.80" font-family="sans" font-style="normal" font-weight="400">
ContentFragment</text>
<rect x="-296.650" y="-344.493" width="6.283" height="2.700" fill="#FFFFFF" stroke="none" stroke-width="0"/>
<rect x="-296.650" y="-344.493" width="6.283" height="2.700" fill="none" stroke="#000000" stroke-width="0.100" />
<text x="-293.509" y="-343.348"  fill="#000000" text-anchor="middle" font-size="0.80" font-family="sans" font-style="normal" font-weight="400">
Application</text>
<text x="-293.509" y="-342.548"  fill="#000000" text-anchor="middle" font-size="0.80" font-family="sans" font-style="normal" font-weight="400">
ContentProvider</text>
<path stroke="none" fill="#FFFFFF" stroke-width="0.100" d="M -295.421,-337.243 C -294.654,-337.918 -294.271,-338.143 -293.504,-338.143 C -292.738,-338.143 -292.355,-337.918 -291.588,-337.243 L -291.588,-333.643 C -292.355,-332.968 -292.738,-332.743 -293.504,-332.743 C -294.271,-332.743 -294.654,-332.968 -295.421,-333.643 L -295.421,-337.243 "/>
<path stroke="#000000" fill="none" stroke-width="0.100"  d="M -295.421,-337.243 C -294.654,-337.918 -294.271,-338.143 -293.504,-338.143 C -292.738,-338.143 -292.355,-337.918 -291.588,-337.243 L -291.588,-333.643 C -292.355,-332.968 -292.738,-332.743 -293.504,-332.743 C -294.271,-332.743 -294.654,-332.968 -295.421,-333.643 L -295.421,-337.243 "/>
<path stroke="#000000" fill="none" stroke-width="0.100"  d="M -295.421,-337.243 C -294.654,-336.568 -294.271,-336.343 -293.504,-336.343 C -292.738,-336.343 -292.355,-336.568 -291.588,-337.243 "/>
<text x="-293.504" y="-335.593"  fill="#000000" text-anchor="middle" font-size="0.80" font-family="sans" font-style="normal" font-weight="400">
client</text>
<text x="-293.504" y="-334.793"  fill="#000000" text-anchor="middle" font-size="0.80" font-family="sans" font-style="normal" font-weight="400">
application</text>
<text x="-293.504" y="-333.993"  fill="#000000" text-anchor="middle" font-size="0.80" font-family="sans" font-style="normal" font-weight="400">
database</text>
<line x1="-293.508" y1="-341.307" x2="-293.505" y2="-338.630" stroke="#000000" stroke-width="0.100" />
<polygon fill="#000000" stroke="none" stroke-width="0.100" points="-293.509,-341.682 -293.258,-341.182 -293.508,-341.307 -293.758,-341.181 "/>
<polygon fill="none" stroke="#000000" stroke-width="0.100"  points="-293.509,-341.682 -293.258,-341.182 -293.508,-341.307 -293.758,-341.181 "/>
<polygon fill="#000000" stroke="none" stroke-width="0.100" points="-293.505,-338.255 -293.755,-338.755 -293.505,-338.630 -293.255,-338.755 "/>
<polygon fill="none" stroke="#000000" stroke-width="0.100"  points="-293.505,-338.255 -293.755,-338.755 -293.505,-338.630 -293.255,-338.755 "/>
<rect x="-230.650" y="-350.493" width="5.225" height="2.700" fill="#FFFFFF" stroke="none" stroke-width="0"/>
<rect x="-230.650" y="-350.493" width="5.225" height="2.700" fill="none" stroke="#000000" stroke-width="0.100" />
<text x="-228.038" y="-349.348"  fill="#000000" text-anchor="middle" font-size="0.80" font-family="sans" font-style="normal" font-weight="400">
Dispatcher</text>
<text x="-228.038" y="-348.548"  fill="#000000" text-anchor="middle" font-size="0.80" font-family="sans" font-style="normal" font-weight="400">
Servelet</text>
<rect x="-221.650" y="-340.493" width="6.417" height="2.700" fill="#FFFFFF" stroke="none" stroke-width="0"/>
<rect x="-221.650" y="-340.493" width="6.417" height="2.700" fill="none" stroke="#000000" stroke-width="0.100" />
<text x="-218.441" y="-339.348"  fill="#000000" text-anchor="middle" font-size="0.80" font-family="sans" font-style="normal" font-weight="400">
UserRegistration</text>
<text x="-218.441" y="-338.548"  fill="#000000" text-anchor="middle" font-size="0.80" font-family="sans" font-style="normal" font-weight="400">
Service</text>
<text x="-247.000" y="-370.193"  fill="#000000" text-anchor="middle" font-size="0.80" font-family="sans" font-style="normal" font-weight="400">
Diabetes</text>
<text x="-247.000" y="-369.393"  fill="#000000" text-anchor="middle" font-size="0.80" font-family="sans" font-style="normal" font-weight="400">
Services </text>
<rect x="-250.000" y="-351.393" width="4.180" height="2.700" fill="#FFFFFF" stroke="none" stroke-width="0"/>
<rect x="-250.000" y="-351.393" width="4.180" height="2.700" fill="none" stroke="#000000" stroke-width="0.100" />
<text x="-247.910" y="-349.848"  fill="#000000" text-anchor="middle" font-size="0.80" font-family="sans" font-style="normal" font-weight="400">
register</text>
<rect x="-250.000" y="-347.393" width="4.180" height="2.700" fill="#FFFFFF" stroke="none" stroke-width="0"/>
<rect x="-250.000" y="-347.393" width="4.180" height="2.700" fill="none" stroke="#000000" stroke-width="0.100" />
<text x="-247.910" y="-345.848"  fill="#000000" text-anchor="middle" font-size="0.80" font-family="sans" font-style="normal" font-weight="400">
feedback</text>
<rect x="-250.000" y="-343.393" width="4.180" height="2.700" fill="#FFFFFF" stroke="none" stroke-width="0"/>
<rect x="-250.000" y="-343.393" width="4.180" height="2.700" fill="none" stroke="#000000" stroke-width="0.100" />
<text x="-247.910" y="-341.848"  fill="#000000" text-anchor="middle" font-size="0.80" font-family="sans" font-style="normal" font-weight="400">
checkin</text>
<line x1="-276.038" y1="-357.793" x2="-276.058" y2="-355.979" stroke="#000000" stroke-width="0.100" />
<polygon fill="#000000" stroke="none" stroke-width="0.100" points="-276.062,-355.604 -276.307,-356.107 -276.058,-355.979 -275.807,-356.102 "/>
<polygon fill="none" stroke="#000000" stroke-width="0.100"  points="-276.062,-355.604 -276.307,-356.107 -276.058,-355.979 -275.807,-356.102 "/>
<rect x="-278.650" y="-351.343" width="5.225" height="2.700" fill="#FFFFFF" stroke="none" stroke-width="0"/>
<rect x="-278.650" y="-351.343" width="5.225" height="2.700" fill="none" stroke="#000000" stroke-width="0.100" />
<text x="-276.038" y="-350.198"  fill="#000000" text-anchor="middle" font-size="0.80" font-family="sans" font-style="normal" font-weight="400">
Registration</text>
<text x="-276.038" y="-349.398"  fill="#000000" text-anchor="middle" font-size="0.80" font-family="sans" font-style="normal" font-weight="400">
Activity</text>
<rect x="-279.500" y="-346.893" width="6.700" height="2.700" fill="#FFFFFF" stroke="none" stroke-width="0"/>
<rect x="-279.500" y="-346.893" width="6.700" height="2.700" fill="none" stroke="#000000" stroke-width="0.100" />
<text x="-276.150" y="-345.748"  fill="#000000" text-anchor="middle" font-size="0.80" font-family="sans" font-style="normal" font-weight="400">
Registration</text>
<text x="-276.150" y="-344.948"  fill="#000000" text-anchor="middle" font-size="0.80" font-family="sans" font-style="normal" font-weight="400">
ContentFragment</text>
<line x1="-276.038" y1="-348.643" x2="-276.082" y2="-347.429" stroke="#000000" stroke-width="0.100" />
<polygon fill="#000000" stroke="none" stroke-width="0.100" points="-276.095,-347.055 -276.327,-347.563 -276.082,-347.429 -275.827,-347.545 "/>
<polygon fill="none" stroke="#000000" stroke-width="0.100"  points="-276.095,-347.055 -276.327,-347.563 -276.082,-347.429 -275.827,-347.545 "/>
<rect x="-293.650" y="-387.493" width="7.067" height="3.500" fill="#FFFFFF" stroke="none" stroke-width="0"/>
<rect x="-293.650" y="-387.493" width="7.067" height="3.500" fill="none" stroke="#000000" stroke-width="0.100" />
<text x="-290.116" y="-386.348"  fill="#000000" text-anchor="middle" font-size="0.80" font-family="sans" font-style="normal" font-weight="400">
CheckinReminder</text>
<text x="-290.116" y="-385.548"  fill="#000000" text-anchor="middle" font-size="0.80" font-family="sans" font-style="normal" font-weight="400">
Notification</text>
<line x1="-276.038" y1="-339.793" x2="-276.087" y2="-337.980" stroke="#000000" stroke-width="0.100" />
<polygon fill="#000000" stroke="none" stroke-width="0.100" points="-276.097,-337.605 -276.333,-338.112 -276.087,-337.980 -275.833,-338.098 "/>
<polygon fill="none" stroke="#000000" stroke-width="0.100"  points="-276.097,-337.605 -276.333,-338.112 -276.087,-337.980 -275.833,-338.098 "/>
<rect x="-278.650" y="-332.493" width="5.225" height="2.700" fill="#FFFFFF" stroke="none" stroke-width="0"/>
<rect x="-278.650" y="-332.493" width="5.225" height="2.700" fill="none" stroke="#000000" stroke-width="0.100" />
<text x="-276.038" y="-331.348"  fill="#000000" text-anchor="middle" font-size="0.80" font-family="sans" font-style="normal" font-weight="400">
Feedback</text>
<text x="-276.038" y="-330.548"  fill="#000000" text-anchor="middle" font-size="0.80" font-family="sans" font-style="normal" font-weight="400">
Activity</text>
<rect x="-279.400" y="-327.493" width="6.700" height="2.700" fill="#FFFFFF" stroke="none" stroke-width="0"/>
<rect x="-279.400" y="-327.493" width="6.700" height="2.700" fill="none" stroke="#000000" stroke-width="0.100" />
<text x="-276.050" y="-326.348"  fill="#000000" text-anchor="middle" font-size="0.80" font-family="sans" font-style="normal" font-weight="400">
Feedback</text>
<text x="-276.050" y="-325.548"  fill="#000000" text-anchor="middle" font-size="0.80" font-family="sans" font-style="normal" font-weight="400">
ContentFragment</text>
<line x1="-276.038" y1="-329.793" x2="-276.047" y2="-327.980" stroke="#000000" stroke-width="0.100" />
<polygon fill="#000000" stroke="none" stroke-width="0.100" points="-276.049,-327.605 -276.297,-328.107 -276.047,-327.980 -275.797,-328.104 "/>
<polygon fill="none" stroke="#000000" stroke-width="0.100"  points="-276.049,-327.605 -276.297,-328.107 -276.047,-327.980 -275.797,-328.104 "/>
<polyline fill="none" stroke="#000000" stroke-width="0.100"  points="-289.881,-343.818 -284.898,-343.818 -284.898,-354.093 -279.916,-354.093 "/>
<polygon fill="#000000" stroke="none" stroke-width="0.100" points="-290.256,-343.818 -289.756,-344.068 -289.881,-343.818 -289.756,-343.568 "/>
<polygon fill="none" stroke="#000000" stroke-width="0.100"  points="-290.256,-343.818 -289.756,-344.068 -289.881,-343.818 -289.756,-343.568 "/>
<polygon fill="#000000" stroke="none" stroke-width="0.100" points="-279.541,-354.093 -280.041,-353.843 -279.916,-354.093 -280.041,-354.343 "/>
<polygon fill="none" stroke="#000000" stroke-width="0.100"  points="-279.541,-354.093 -280.041,-353.843 -279.916,-354.093 -280.041,-354.343 "/>
<polyline fill="none" stroke="#000000" stroke-width="0.100"  points="-289.881,-343.143 -283.650,-343.143 -283.650,-345.543 -279.987,-345.543 "/>
<polygon fill="#000000" stroke="none" stroke-width="0.100" points="-290.256,-343.143 -289.756,-343.393 -289.881,-343.143 -289.756,-342.893 "/>
<polygon fill="none" stroke="#000000" stroke-width="0.100"  points="-290.256,-343.143 -289.756,-343.393 -289.881,-343.143 -289.756,-342.893 "/>
<polygon fill="#000000" stroke="none" stroke-width="0.100" points="-279.612,-345.543 -280.112,-345.293 -279.987,-345.543 -280.112,-345.793 "/>
<polygon fill="none" stroke="#000000" stroke-width="0.100"  points="-279.612,-345.543 -280.112,-345.293 -279.987,-345.543 -280.112,-345.793 "/>
<polyline fill="none" stroke="#000000" stroke-width="0.100"  points="-289.881,-342.468 -284.909,-342.468 -284.909,-336.818 -279.937,-336.818 "/>
<polygon fill="#000000" stroke="none" stroke-width="0.100" points="-290.256,-342.468 -289.756,-342.718 -289.881,-342.468 -289.756,-342.218 "/>
<polygon fill="none" stroke="#000000" stroke-width="0.100"  points="-290.256,-342.468 -289.756,-342.718 -289.881,-342.468 -289.756,-342.218 "/>
<polygon fill="#000000" stroke="none" stroke-width="0.100" points="-279.562,-336.818 -280.062,-336.568 -279.937,-336.818 -280.062,-337.068 "/>
<polygon fill="none" stroke="#000000" stroke-width="0.100"  points="-279.562,-336.818 -280.062,-336.568 -279.937,-336.818 -280.062,-337.068 "/>
<polyline fill="none" stroke="#000000" stroke-width="0.100"  points="-289.881,-342.468 -286.650,-342.468 -286.650,-326.143 -279.887,-326.143 "/>
<polygon fill="#000000" stroke="none" stroke-width="0.100" points="-290.256,-342.468 -289.756,-342.718 -289.881,-342.468 -289.756,-342.218 "/>
<polygon fill="none" stroke="#000000" stroke-width="0.100"  points="-290.256,-342.468 -289.756,-342.718 -289.881,-342.468 -289.756,-342.218 "/>
<polygon fill="#000000" stroke="none" stroke-width="0.100" points="-279.512,-326.143 -280.012,-325.893 -279.887,-326.143 -280.012,-326.393 "/>
<polygon fill="none" stroke="#000000" stroke-width="0.100"  points="-279.512,-326.143 -280.012,-325.893 -279.887,-326.143 -280.012,-326.393 "/>
<polyline fill="none" stroke="#000000" stroke-width="0.100"  points="-245.333,-354.043 -238.235,-354.043 -238.235,-349.143 -231.137,-349.143 "/>
<polygon fill="#000000" stroke="none" stroke-width="0.100" points="-245.708,-354.043 -245.208,-354.293 -245.333,-354.043 -245.208,-353.793 "/>
<polygon fill="none" stroke="#000000" stroke-width="0.100"  points="-245.708,-354.043 -245.208,-354.293 -245.333,-354.043 -245.208,-353.793 "/>
<polygon fill="#000000" stroke="none" stroke-width="0.100" points="-230.762,-349.143 -231.262,-348.893 -231.137,-349.143 -231.262,-349.393 "/>
<polygon fill="none" stroke="#000000" stroke-width="0.100"  points="-230.762,-349.143 -231.262,-348.893 -231.137,-349.143 -231.262,-349.393 "/>
<polyline fill="none" stroke="#000000" stroke-width="0.100"  points="-245.333,-350.043 -238.235,-350.043 -238.235,-349.143 -231.137,-349.143 "/>
<polygon fill="#000000" stroke="none" stroke-width="0.100" points="-245.708,-350.043 -245.208,-350.293 -245.333,-350.043 -245.208,-349.793 "/>
<polygon fill="none" stroke="#000000" stroke-width="0.100"  points="-245.708,-350.043 -245.208,-350.293 -245.333,-350.043 -245.208,-349.793 "/>
<polygon fill="#000000" stroke="none" stroke-width="0.100" points="-230.762,-349.143 -231.262,-348.893 -231.137,-349.143 -231.262,-349.393 "/>
<polygon fill="none" stroke="#000000" stroke-width="0.100"  points="-230.762,-349.143 -231.262,-348.893 -231.137,-349.143 -231.262,-349.393 "/>
<polyline fill="none" stroke="#000000" stroke-width="0.100"  points="-245.333,-346.043 -238.235,-346.043 -238.235,-349.143 -231.137,-349.143 "/>
<polygon fill="#000000" stroke="none" stroke-width="0.100" points="-245.708,-346.043 -245.208,-346.293 -245.333,-346.043 -245.208,-345.793 "/>
<polygon fill="none" stroke="#000000" stroke-width="0.100"  points="-245.708,-346.043 -245.208,-346.293 -245.333,-346.043 -245.208,-345.793 "/>
<polygon fill="#000000" stroke="none" stroke-width="0.100" points="-230.762,-349.143 -231.262,-348.893 -231.137,-349.143 -231.262,-349.393 "/>
<polygon fill="none" stroke="#000000" stroke-width="0.100"  points="-230.762,-349.143 -231.262,-348.893 -231.137,-349.143 -231.262,-349.393 "/>
<polyline fill="none" stroke="#000000" stroke-width="0.100"  points="-230.650,-349.143 -238.235,-349.143 -238.235,-342.043 -245.333,-342.043 "/>
<polygon fill="#000000" stroke="none" stroke-width="0.100" points="-245.708,-342.043 -245.208,-342.293 -245.333,-342.043 -245.208,-341.793 "/>
<polygon fill="none" stroke="#000000" stroke-width="0.100"  points="-245.708,-342.043 -245.208,-342.293 -245.333,-342.043 -245.208,-341.793 "/>
<polyline fill="none" stroke="#000000" stroke-width="0.100"  points="-225.425,-349.143 -223.538,-349.143 -223.538,-353.143 -222.137,-353.143 "/>
<polygon fill="#000000" stroke="none" stroke-width="0.100" points="-221.762,-353.143 -222.262,-352.893 -222.137,-353.143 -222.262,-353.393 "/>
<polygon fill="none" stroke="#000000" stroke-width="0.100"  points="-221.762,-353.143 -222.262,-352.893 -222.137,-353.143 -222.262,-353.393 "/>
<polyline fill="none" stroke="#000000" stroke-width="0.100"  points="-225.425,-349.143 -223.538,-349.143 -223.538,-348.143 -222.137,-348.143 "/>
<polygon fill="#000000" stroke="none" stroke-width="0.100" points="-221.762,-348.143 -222.262,-347.893 -222.137,-348.143 -222.262,-348.393 "/>
<polygon fill="none" stroke="#000000" stroke-width="0.100"  points="-221.762,-348.143 -222.262,-347.893 -222.137,-348.143 -222.262,-348.393 "/>
<polyline fill="none" stroke="#000000" stroke-width="0.100"  points="-225.425,-349.143 -223.538,-349.143 -223.538,-343.143 -222.137,-343.143 "/>
<polygon fill="#000000" stroke="none" stroke-width="0.100" points="-221.762,-343.143 -222.262,-342.893 -222.137,-343.143 -222.262,-343.393 "/>
<polygon fill="none" stroke="#000000" stroke-width="0.100"  points="-221.762,-343.143 -222.262,-342.893 -222.137,-343.143 -222.262,-343.393 "/>
<polyline fill="none" stroke="#000000" stroke-width="0.100"  points="-224.938,-349.143 -223.538,-349.143 -223.538,-339.143 -222.137,-339.143 "/>
<polygon fill="#000000" stroke="none" stroke-width="0.100" points="-225.313,-349.143 -224.813,-349.393 -224.938,-349.143 -224.813,-348.893 "/>
<polygon fill="none" stroke="#000000" stroke-width="0.100"  points="-225.313,-349.143 -224.813,-349.393 -224.938,-349.143 -224.813,-348.893 "/>
<polygon fill="#000000" stroke="none" stroke-width="0.100" points="-221.762,-339.143 -222.262,-338.893 -222.137,-339.143 -222.262,-339.393 "/>
<polygon fill="none" stroke="#000000" stroke-width="0.100"  points="-221.762,-339.143 -222.262,-338.893 -222.137,-339.143 -222.262,-339.393 "/>
<rect x="-269.450" y="-355.393" width="5.800" height="2.700" fill="#FFFFFF" stroke="none" stroke-width="0"/>
<rect x="-269.450" y="-355.393" width="5.800" height="2.700" fill="none" stroke="#000000" stroke-width="0.100" />
<text x="-266.550" y="-354.248"  fill="#000000" text-anchor="middle" font-size="0.80" font-family="sans" font-style="normal" font-weight="400">
Login</text>
<text x="-266.550" y="-353.448"  fill="#000000" text-anchor="middle" font-size="0.80" font-family="sans" font-style="normal" font-weight="400">
IntentService</text>
<rect x="-269.650" y="-346.893" width="6.000" height="2.700" fill="#FFFFFF" stroke="none" stroke-width="0"/>
<rect x="-269.650" y="-346.893" width="6.000" height="2.700" fill="none" stroke="#000000" stroke-width="0.100" />
<text x="-266.650" y="-345.748"  fill="#000000" text-anchor="middle" font-size="0.80" font-family="sans" font-style="normal" font-weight="400">
Login</text>
<text x="-266.650" y="-344.948"  fill="#000000" text-anchor="middle" font-size="0.80" font-family="sans" font-style="normal" font-weight="400">
IntentService</text>
<line x1="-272.729" y1="-354.093" x2="-269.937" y2="-354.051" stroke="#000000" stroke-width="0.100" />
<polygon fill="#000000" stroke="none" stroke-width="0.100" points="-269.562,-354.045 -270.066,-353.803 -269.937,-354.051 -270.058,-354.303 "/>
<polygon fill="none" stroke="#000000" stroke-width="0.100"  points="-269.562,-354.045 -270.066,-353.803 -269.937,-354.051 -270.058,-354.303 "/>
<line x1="-272.800" y1="-345.543" x2="-270.137" y2="-345.543" stroke="#000000" stroke-width="0.100" />
<polygon fill="#000000" stroke="none" stroke-width="0.100" points="-269.762,-345.543 -270.262,-345.293 -270.137,-345.543 -270.262,-345.793 "/>
<polygon fill="none" stroke="#000000" stroke-width="0.100"  points="-269.762,-345.543 -270.262,-345.293 -270.137,-345.543 -270.262,-345.793 "/>
<rect x="-268.650" y="-337.493" width="5.800" height="2.700" fill="#FFFFFF" stroke="none" stroke-width="0"/>
<rect x="-268.650" y="-337.493" width="5.800" height="2.700" fill="none" stroke="#000000" stroke-width="0.100" />
<text x="-265.750" y="-336.348"  fill="#000000" text-anchor="middle" font-size="0.80" font-family="sans" font-style="normal" font-weight="400">
Login</text>
<text x="-265.750" y="-335.548"  fill="#000000" text-anchor="middle" font-size="0.80" font-family="sans" font-style="normal" font-weight="400">
IntentService</text>
<rect x="-268.650" y="-327.493" width="5.800" height="2.700" fill="#FFFFFF" stroke="none" stroke-width="0"/>
<rect x="-268.650" y="-327.493" width="5.800" height="2.700" fill="none" stroke="#000000" stroke-width="0.100" />
<text x="-265.750" y="-326.348"  fill="#000000" text-anchor="middle" font-size="0.80" font-family="sans" font-style="normal" font-weight="400">
Login</text>
<text x="-265.750" y="-325.548"  fill="#000000" text-anchor="middle" font-size="0.80" font-family="sans" font-style="normal" font-weight="400">
IntentService</text>
<line x1="-272.750" y1="-336.143" x2="-269.137" y2="-336.143" stroke="#000000" stroke-width="0.100" />
<polygon fill="#000000" stroke="none" stroke-width="0.100" points="-268.762,-336.143 -269.262,-335.893 -269.137,-336.143 -269.262,-336.393 "/>
<polygon fill="none" stroke="#000000" stroke-width="0.100"  points="-268.762,-336.143 -269.262,-335.893 -269.137,-336.143 -269.262,-336.393 "/>
<line x1="-272.700" y1="-326.143" x2="-269.137" y2="-326.143" stroke="#000000" stroke-width="0.100" />
<polygon fill="#000000" stroke="none" stroke-width="0.100" points="-268.762,-326.143 -269.262,-325.893 -269.137,-326.143 -269.262,-326.393 "/>
<polygon fill="none" stroke="#000000" stroke-width="0.100"  points="-268.762,-326.143 -269.262,-325.893 -269.137,-326.143 -269.262,-326.393 "/>
<polyline fill="none" stroke="#000000" stroke-width="0.100"  points="-263.650,-345.543 -256.825,-345.543 -256.825,-350.043 -250.487,-350.043 "/>
<polygon fill="#000000" stroke="none" stroke-width="0.100" points="-250.112,-350.043 -250.612,-349.793 -250.487,-350.043 -250.612,-350.293 "/>
<polygon fill="none" stroke="#000000" stroke-width="0.100"  points="-250.112,-350.043 -250.612,-349.793 -250.487,-350.043 -250.612,-350.293 "/>
<polyline fill="none" stroke="#000000" stroke-width="0.100"  points="-262.850,-336.143 -256.425,-336.143 -256.425,-346.043 -250.487,-346.043 "/>
<polygon fill="#000000" stroke="none" stroke-width="0.100" points="-250.112,-346.043 -250.612,-345.793 -250.487,-346.043 -250.612,-346.293 "/>
<polygon fill="none" stroke="#000000" stroke-width="0.100"  points="-250.112,-346.043 -250.612,-345.793 -250.487,-346.043 -250.612,-346.293 "/>
<polyline fill="none" stroke="#000000" stroke-width="0.100"  points="-262.850,-326.143 -253.650,-326.143 -253.650,-342.043 -250.487,-342.043 "/>
<polygon fill="#000000" stroke="none" stroke-width="0.100" points="-250.112,-342.043 -250.612,-341.793 -250.487,-342.043 -250.612,-342.293 "/>
<polygon fill="none" stroke="#000000" stroke-width="0.100"  points="-250.112,-342.043 -250.612,-341.793 -250.487,-342.043 -250.612,-342.293 "/>
<rect x="-250.000" y="-338.493" width="4.180" height="2.700" fill="#FFFFFF" stroke="none" stroke-width="0"/>
<rect x="-250.000" y="-338.493" width="4.180" height="2.700" fill="none" stroke="#000000" stroke-width="0.100" />
<text x="-247.910" y="-336.948"  fill="#000000" text-anchor="middle" font-size="0.80" font-family="sans" font-style="normal" font-weight="400">
data</text>
<rect x="-278.850" y="-373.493" width="5.225" height="3.500" fill="#FFFFFF" stroke="none" stroke-width="0"/>
<rect x="-278.850" y="-373.493" width="5.225" height="3.500" fill="none" stroke="#000000" stroke-width="0.100" />
<text x="-276.238" y="-372.348"  fill="#000000" text-anchor="middle" font-size="0.80" font-family="sans" font-style="normal" font-weight="400">
Followers</text>
<text x="-276.238" y="-371.548"  fill="#000000" text-anchor="middle" font-size="0.80" font-family="sans" font-style="normal" font-weight="400">
Preference</text>
<text x="-276.238" y="-370.748"  fill="#000000" text-anchor="middle" font-size="0.80" font-family="sans" font-style="normal" font-weight="400">
Activity</text>
<rect x="-279.650" y="-366.493" width="6.700" height="3.500" fill="#FFFFFF" stroke="none" stroke-width="0"/>
<rect x="-279.650" y="-366.493" width="6.700" height="3.500" fill="none" stroke="#000000" stroke-width="0.100" />
<text x="-276.300" y="-365.348"  fill="#000000" text-anchor="middle" font-size="0.80" font-family="sans" font-style="normal" font-weight="400">
Followers</text>
<text x="-276.300" y="-364.548"  fill="#000000" text-anchor="middle" font-size="0.80" font-family="sans" font-style="normal" font-weight="400">
Preference</text>
<text x="-276.300" y="-363.748"  fill="#000000" text-anchor="middle" font-size="0.80" font-family="sans" font-style="normal" font-weight="400">
ContentFragment</text>
<line x1="-276.238" y1="-369.993" x2="-276.273" y2="-367.030" stroke="#000000" stroke-width="0.100" />
<polygon fill="#000000" stroke="none" stroke-width="0.100" points="-276.277,-366.655 -276.521,-367.158 -276.273,-367.030 -276.021,-367.152 "/>
<polygon fill="none" stroke="#000000" stroke-width="0.100"  points="-276.277,-366.655 -276.521,-367.158 -276.273,-367.030 -276.021,-367.152 "/>
<rect x="-270.450" y="-366.493" width="7.530" height="3.500" fill="#FFFFFF" stroke="none" stroke-width="0"/>
<rect x="-270.450" y="-366.493" width="7.530" height="3.500" fill="none" stroke="#000000" stroke-width="0.100" />
<text x="-266.685" y="-365.348"  fill="#000000" text-anchor="middle" font-size="0.80" font-family="sans" font-style="normal" font-weight="400">
Followers</text>
<text x="-266.685" y="-364.548"  fill="#000000" text-anchor="middle" font-size="0.80" font-family="sans" font-style="normal" font-weight="400">
Preference</text>
<text x="-266.685" y="-363.748"  fill="#000000" text-anchor="middle" font-size="0.80" font-family="sans" font-style="normal" font-weight="400">
IntentService</text>
<rect x="-250.102" y="-361.493" width="4.785" height="2.700" fill="#FFFFFF" stroke="none" stroke-width="0"/>
<rect x="-250.102" y="-361.493" width="4.785" height="2.700" fill="none" stroke="#000000" stroke-width="0.100" />
<text x="-247.710" y="-360.348"  fill="#000000" text-anchor="middle" font-size="0.80" font-family="sans" font-style="normal" font-weight="400">
followers</text>
<text x="-247.710" y="-359.548"  fill="#000000" text-anchor="middle" font-size="0.80" font-family="sans" font-style="normal" font-weight="400">
Preference</text>
<line x1="-272.950" y1="-364.743" x2="-270.937" y2="-364.743" stroke="#000000" stroke-width="0.100" />
<polygon fill="#000000" stroke="none" stroke-width="0.100" points="-270.562,-364.743 -271.062,-364.493 -270.937,-364.743 -271.062,-364.993 "/>
<polygon fill="none" stroke="#000000" stroke-width="0.100"  points="-270.562,-364.743 -271.062,-364.493 -270.937,-364.743 -271.062,-364.993 "/>
<polyline fill="none" stroke="#000000" stroke-width="0.100"  points="-262.920,-364.743 -256.511,-364.743 -256.511,-360.143 -250.589,-360.143 "/>
<polygon fill="#000000" stroke="none" stroke-width="0.100" points="-250.214,-360.143 -250.714,-359.893 -250.589,-360.143 -250.714,-360.393 "/>
<polygon fill="none" stroke="#000000" stroke-width="0.100"  points="-250.214,-360.143 -250.714,-359.893 -250.589,-360.143 -250.714,-360.393 "/>
<polyline fill="none" stroke="#000000" stroke-width="0.100"  points="-245.317,-360.143 -237.650,-360.143 -237.650,-349.143 -231.137,-349.143 "/>
<polygon fill="#000000" stroke="none" stroke-width="0.100" points="-230.762,-349.143 -231.262,-348.893 -231.137,-349.143 -231.262,-349.393 "/>
<polygon fill="none" stroke="#000000" stroke-width="0.100"  points="-230.762,-349.143 -231.262,-348.893 -231.137,-349.143 -231.262,-349.393 "/>
<rect x="-292.721" y="-379.493" width="5.225" height="3.500" fill="#FFFFFF" stroke="none" stroke-width="0"/>
<rect x="-292.721" y="-379.493" width="5.225" height="3.500" fill="none" stroke="#000000" stroke-width="0.100" />
<text x="-290.108" y="-378.348"  fill="#000000" text-anchor="middle" font-size="0.80" font-family="sans" font-style="normal" font-weight="400">
Repeating</text>
<text x="-290.108" y="-377.548"  fill="#000000" text-anchor="middle" font-size="0.80" font-family="sans" font-style="normal" font-weight="400">
Alarm</text>
<text x="-290.108" y="-376.748"  fill="#000000" text-anchor="middle" font-size="0.80" font-family="sans" font-style="normal" font-weight="400">
Service</text>
<rect x="-278.821" y="-387.493" width="5.225" height="3.500" fill="#FFFFFF" stroke="none" stroke-width="0"/>
<rect x="-278.821" y="-387.493" width="5.225" height="3.500" fill="none" stroke="#000000" stroke-width="0.100" />
<text x="-276.208" y="-385.948"  fill="#000000" text-anchor="middle" font-size="0.80" font-family="sans" font-style="normal" font-weight="400">
Checkin</text>
<text x="-276.208" y="-385.148"  fill="#000000" text-anchor="middle" font-size="0.80" font-family="sans" font-style="normal" font-weight="400">
Activity</text>
<rect x="-279.550" y="-380.493" width="6.700" height="3.500" fill="#FFFFFF" stroke="none" stroke-width="0"/>
<rect x="-279.550" y="-380.493" width="6.700" height="3.500" fill="none" stroke="#000000" stroke-width="0.100" />
<text x="-276.200" y="-378.948"  fill="#000000" text-anchor="middle" font-size="0.80" font-family="sans" font-style="normal" font-weight="400">
Checkin</text>
<text x="-276.200" y="-378.148"  fill="#000000" text-anchor="middle" font-size="0.80" font-family="sans" font-style="normal" font-weight="400">
ContentFragment</text>
<line x1="-276.208" y1="-383.993" x2="-276.204" y2="-381.030" stroke="#000000" stroke-width="0.100" />
<polygon fill="#000000" stroke="none" stroke-width="0.100" points="-276.203,-380.655 -276.454,-381.155 -276.204,-381.030 -275.954,-381.156 "/>
<polygon fill="none" stroke="#000000" stroke-width="0.100"  points="-276.203,-380.655 -276.454,-381.155 -276.204,-381.030 -275.954,-381.156 "/>
<rect x="-270.350" y="-380.493" width="7.530" height="3.500" fill="#FFFFFF" stroke="none" stroke-width="0"/>
<rect x="-270.350" y="-380.493" width="7.530" height="3.500" fill="none" stroke="#000000" stroke-width="0.100" />
<text x="-266.585" y="-378.948"  fill="#000000" text-anchor="middle" font-size="0.80" font-family="sans" font-style="normal" font-weight="400">
Checkin</text>
<text x="-266.585" y="-378.148"  fill="#000000" text-anchor="middle" font-size="0.80" font-family="sans" font-style="normal" font-weight="400">
IntentService</text>
<line x1="-272.850" y1="-378.743" x2="-270.837" y2="-378.743" stroke="#000000" stroke-width="0.100" />
<polygon fill="#000000" stroke="none" stroke-width="0.100" points="-270.462,-378.743 -270.962,-378.493 -270.837,-378.743 -270.962,-378.993 "/>
<polygon fill="none" stroke="#000000" stroke-width="0.100"  points="-270.462,-378.743 -270.962,-378.493 -270.837,-378.743 -270.962,-378.993 "/>
<polyline fill="none" stroke="#000000" stroke-width="0.100"  points="-262.820,-378.743 -256.335,-378.743 -256.335,-366.143 -250.337,-366.143 "/>
<polygon fill="#000000" stroke="none" stroke-width="0.100" points="-249.962,-366.143 -250.462,-365.893 -250.337,-366.143 -250.462,-366.393 "/>
<polygon fill="none" stroke="#000000" stroke-width="0.100"  points="-249.962,-366.143 -250.462,-365.893 -250.337,-366.143 -250.462,-366.393 "/>
<rect x="-249.850" y="-367.493" width="4.785" height="2.700" fill="#FFFFFF" stroke="none" stroke-width="0"/>
<rect x="-249.850" y="-367.493" width="4.785" height="2.700" fill="none" stroke="#000000" stroke-width="0.100" />
<text x="-247.457" y="-366.348"  fill="#000000" text-anchor="middle" font-size="0.80" font-family="sans" font-style="normal" font-weight="400">
checkin</text>
<line x1="-290.108" y1="-379.493" x2="-290.115" y2="-383.507" stroke="#000000" stroke-width="0.100" />
<polygon fill="#000000" stroke="none" stroke-width="0.100" points="-290.116,-383.882 -289.865,-383.382 -290.115,-383.507 -290.365,-383.381 "/>
<polygon fill="none" stroke="#000000" stroke-width="0.100"  points="-290.116,-383.882 -289.865,-383.382 -290.115,-383.507 -290.365,-383.381 "/>
<line x1="-286.583" y1="-385.743" x2="-279.308" y2="-385.743" stroke="#000000" stroke-width="0.100" />
<polygon fill="#000000" stroke="none" stroke-width="0.100" points="-278.933,-385.743 -279.433,-385.493 -279.308,-385.743 -279.433,-385.993 "/>
<polygon fill="none" stroke="#000000" stroke-width="0.100"  points="-278.933,-385.743 -279.433,-385.493 -279.308,-385.743 -279.433,-385.993 "/>
<line x1="-263.650" y1="-354.043" x2="-250.487" y2="-354.043" stroke="#000000" stroke-width="0.100" />
<polygon fill="#000000" stroke="none" stroke-width="0.100" points="-250.112,-354.043 -250.612,-353.793 -250.487,-354.043 -250.612,-354.293 "/>
<polygon fill="none" stroke="#000000" stroke-width="0.100"  points="-250.112,-354.043 -250.612,-353.793 -250.487,-354.043 -250.612,-354.293 "/>
</svg>